<svg width="1400" height="1050" viewBox="0 0 1400 1050" fill="none" xmlns="http://www.w3.org/2000/svg">
  <defs>
    <linearGradient id="bg" x1="0" y1="0" x2="1" y2="1">
      <stop offset="0" stop-color="#0b1220"/>
      <stop offset="0.45" stop-color="#0f172a"/>
      <stop offset="1" stop-color="#0b1324"/>
    </linearGradient>
    <radialGradient id="glow" cx="0" cy="0" r="1" gradientTransform="translate(1040 220) rotate(130) scale(520 420)">
      <stop offset="0" stop-color="#5eead4" stop-opacity="0.35"/>
      <stop offset="0.55" stop-color="#14b8a6" stop-opacity="0.15"/>
      <stop offset="1" stop-color="#0f172a" stop-opacity="0"/>
    </radialGradient>
    <linearGradient id="glass" x1="0" y1="0" x2="1" y2="1">
      <stop offset="0" stop-color="#ffffff" stop-opacity="0.06"/>
      <stop offset="1" stop-color="#ffffff" stop-opacity="0.01"/>
    </linearGradient>
  </defs>
  <rect width="1400" height="1050" fill="url(#bg)"/>
  <rect x="0" y="0" width="1400" height="1050" fill="url(#glow)"/>

  <g opacity="0.65">
    <circle cx="240" cy="220" r="140" fill="#22d3ee" fill-opacity="0.12"/>
    <circle cx="320" cy="240" r="90" fill="#34d399" fill-opacity="0.16"/>
    <circle cx="1160" cy="820" r="200" fill="#6366f1" fill-opacity="0.12"/>
  </g>

  <g>
    <rect x="240" y="220" width="700" height="520" rx="40" fill="url(#glass)" stroke="#ffffff" stroke-opacity="0.12"/>
    <rect x="280" y="260" width="620" height="180" rx="28" fill="#0f1d33" stroke="#1f2a44" stroke-opacity="0.6"/>
    <rect x="280" y="470" width="300" height="220" rx="28" fill="#0f1d33" stroke="#1f2a44" stroke-opacity="0.6"/>
    <rect x="600" y="470" width="300" height="220" rx="28" fill="#0f1d33" stroke="#1f2a44" stroke-opacity="0.6"/>
  </g>

  <g opacity="0.8">
    <path d="M470 330h80v-34h60v34h80v60h-80v34h-60v-34h-80v-60z" fill="#2dd4bf" fill-opacity="0.4"/>
    <circle cx="580" cy="350" r="18" fill="#ffffff" fill-opacity="0.12"/>
    <rect x="320" y="530" width="220" height="12" rx="6" fill="#5eead4" fill-opacity="0.4"/>
    <rect x="320" y="560" width="160" height="10" rx="5" fill="#ffffff" fill-opacity="0.18"/>
    <rect x="640" y="530" width="220" height="12" rx="6" fill="#a5b4fc" fill-opacity="0.4"/>
    <rect x="640" y="560" width="160" height="10" rx="5" fill="#ffffff" fill-opacity="0.18"/>
  </g>
</svg>
